<?xml version="1.0" standalone="no"?>
<!DOCTYPE svg PUBLIC "-//W3C//DTD SVG 20010904//EN"
 "http://www.w3.org/TR/2001/REC-SVG-20010904/DTD/svg10.dtd">
<svg version="1.0" xmlns="http://www.w3.org/2000/svg"
 width="180.000000pt" height="180.000000pt" viewBox="0 0 180.000000 180.000000"
 preserveAspectRatio="xMidYMid meet">

<g transform="translate(0.000000,180.000000) scale(0.100000,-0.100000)"
fill="#000000" stroke="none">
<path d="M310 1715 l0 -25 420 0 420 0 0 25 0 25 -420 0 -420 0 0 -25z"/>
<path d="M1210 1715 c0 -21 5 -25 30 -25 25 0 30 4 30 25 0 21 -5 25 -30 25
-25 0 -30 -4 -30 -25z"/>
<path d="M65 1618 c-3 -7 -4 -348 -3 -758 l3 -745 448 -3 447 -2 0 30 c0 30 0
30 -57 30 l-58 0 3 335 3 335 54 0 c54 0 55 0 55 30 0 30 0 30 -57 30 l-58 0
3 335 3 335 94 0 94 0 3 -122 3 -123 135 0 135 0 3 123 3 122 99 0 100 0 0
-141 0 -140 28 3 27 3 3 145 c1 80 0 155 -3 168 l-5 22 -751 0 c-590 0 -751
-3 -754 -12z m247 -170 l3 -123 135 0 135 0 3 123 3 122 99 0 100 0 0 -335 0
-335 -340 0 -339 0 -1 335 0 335 99 0 100 0 3 -122z m220 27 l3 -95 -82 0 -83
0 0 95 0 95 79 0 80 0 3 -95z m738 0 l0 -95 -85 0 -85 0 0 95 0 95 85 0 85 0
0 -95z m-958 -757 l3 -123 135 0 135 0 3 123 3 122 99 0 100 0 0 -335 0 -335
-340 0 -340 0 0 335 1 335 99 0 99 0 3 -122z m218 27 l0 -95 -80 0 -80 0 0 95
0 95 80 0 80 0 0 -95z"/>
<path d="M560 980 c0 -27 3 -30 30 -30 27 0 30 3 30 30 0 27 -3 30 -30 30 -27
0 -30 -3 -30 -30z"/>
<path d="M672 983 c2 -22 9 -29 31 -31 24 -3 27 0 27 27 0 28 -3 31 -31 31
-27 0 -30 -3 -27 -27z"/>
<path d="M560 250 c0 -27 3 -30 30 -30 27 0 30 3 30 30 0 27 -3 30 -30 30 -27
0 -30 -3 -30 -30z"/>
<path d="M672 253 c2 -22 9 -29 31 -31 24 -3 27 0 27 27 0 28 -3 31 -31 31
-27 0 -30 -3 -27 -27z"/>
<path d="M1085 1230 c-11 -4 -31 -20 -45 -35 l-25 -27 -3 -506 c-3 -539 -2
-545 46 -582 23 -19 42 -20 323 -20 l297 0 31 31 31 31 0 522 c0 466 -2 524
-16 545 -33 47 -64 51 -351 50 -147 0 -277 -4 -288 -9z m558 -80 c16 0 17 -27
17 -429 0 -276 4 -432 10 -436 6 -3 9 -25 8 -48 l-1 -42 -7 45 -8 45 1 -56 c0
-52 -21 -108 -36 -93 -11 11 -302 4 -306 -8 -2 -7 -5 -7 -10 0 -3 6 -52 12
-112 13 -100 2 -105 3 -103 23 1 12 3 238 3 503 l1 482 93 3 c75 2 200 2 450
-2z m34 -127 c-2 -16 -4 -5 -4 22 0 28 2 40 4 28 2 -13 2 -35 0 -50z m0 -535
c-1 -68 -3 -13 -3 122 0 135 2 190 3 123 2 -68 2 -178 0 -245z m0 -165 c-3
-10 -5 -4 -5 12 0 17 2 24 5 18 2 -7 2 -21 0 -30z m3 -173 c0 -5 -5 -10 -11
-10 -5 0 -7 5 -4 10 3 6 8 10 11 10 2 0 4 -4 4 -10z m-497 -27 c-13 -2 -35 -2
-50 0 -16 2 -5 4 22 4 28 0 40 -2 28 -4z m200 0 c-7 -2 -19 -2 -25 0 -7 3 -2
5 12 5 14 0 19 -2 13 -5z m185 0 c-26 -2 -71 -2 -100 0 -29 2 -8 3 47 3 55 0
79 -1 53 -3z"/>
<path d="M1290 1094 c0 -34 1 -35 33 -32 17 2 32 8 32 15 0 6 3 14 7 18 15 16
-6 35 -38 35 -32 0 -34 -2 -34 -36z"/>
<path d="M1404 1116 c-12 -31 0 -51 31 -51 27 0 30 4 33 33 3 30 1 32 -28 32
-17 0 -33 -6 -36 -14z"/>
<path d="M1310 947 c-144 -67 -175 -233 -63 -340 33 -31 80 -47 137 -47 44 0
106 19 106 33 0 5 7 7 15 3 8 -3 14 -2 13 2 -1 4 10 25 24 47 15 22 30 57 34
78 l6 38 -33 -3 c-29 -3 -34 -7 -40 -38 -14 -66 -102 -115 -168 -92 -111 39
-133 177 -38 240 51 34 113 34 141 0 10 -13 17 -16 14 -8 -3 8 1 28 9 43 17
33 18 31 -26 46 -42 14 -98 13 -131 -2z"/>
<path d="M1478 846 l-97 -101 -25 24 c-20 19 -28 21 -45 12 -30 -16 -26 -32
17 -74 41 -40 62 -46 82 -22 7 8 17 12 23 8 5 -3 7 -2 4 4 -7 11 146 166 156
158 4 -3 5 -2 2 2 -3 3 5 17 17 30 l23 24 -25 19 c-14 11 -27 19 -30 18 -3 0
-49 -46 -102 -102z"/>
<path d="M1519 913 c-13 -16 -12 -17 4 -4 16 13 21 21 13 21 -2 0 -10 -8 -17
-17z"/>
<path d="M1429 823 c-13 -16 -12 -17 4 -4 16 13 21 21 13 21 -2 0 -10 -8 -17
-17z"/>
<path d="M1581 694 c0 -11 3 -14 6 -6 3 7 2 16 -1 19 -3 4 -6 -2 -5 -13z"/>
<path d="M1433 483 l-173 -3 0 -30 0 -30 175 0 175 0 0 35 c0 19 -1 34 -2 33
-2 -1 -81 -4 -175 -5z"/>
<path d="M1150 452 c0 -16 2 -31 5 -34 10 -10 64 5 69 19 3 8 1 11 -4 8 -6 -3
-10 3 -10 14 0 17 -6 21 -30 21 -26 0 -30 -4 -30 -28z"/>
<path d="M1152 339 l3 -30 228 -5 227 -4 0 35 0 35 -231 0 -230 0 3 -31z"/>
<path d="M1348 200 c-5 -36 -3 -40 34 -40 25 0 28 3 28 35 0 32 -3 35 -29 35
-24 0 -29 -5 -33 -30z"/>
</g>
</svg>
