<?xml version="1.0" standalone="no"?>
<!DOCTYPE svg PUBLIC "-//W3C//DTD SVG 20010904//EN"
 "http://www.w3.org/TR/2001/REC-SVG-20010904/DTD/svg10.dtd">
<svg version="1.0" xmlns="http://www.w3.org/2000/svg"
 width="900.000000pt" height="886.000000pt" viewBox="0 0 900.000000 886.000000"
 preserveAspectRatio="xMidYMid meet">

<g transform="translate(0.000000,886.000000) scale(0.100000,-0.100000)"
fill="#000000" stroke="none">
<path d="M689 8436 c-205 -73 -252 -366 -82 -516 75 -66 102 -70 463 -70 252
0 327 3 367 15 55 16 134 79 159 126 l15 29 233 0 234 0 4 -27 c4 -24 187
-746 298 -1178 21 -82 98 -384 171 -670 239 -945 338 -1335 450 -1775 61 -239
151 -592 199 -784 49 -191 91 -350 93 -352 2 -3 35 10 73 27 84 37 227 77 312
85 34 4 62 10 62 13 0 3 -11 47 -24 96 -13 50 -79 306 -146 570 -67 264 -141
557 -165 650 -24 94 -85 332 -135 530 -50 198 -129 509 -175 690 -109 426
-252 989 -416 1635 -175 691 -188 741 -199 768 l-10 22 -437 0 -438 0 -42 44
c-84 87 -81 86 -479 86 -258 -1 -358 -4 -385 -14z"/>
<path d="M5805 7400 c-170 -49 -382 -110 -470 -134 -140 -39 -934 -264 -1690
-478 -137 -38 -252 -72 -254 -74 -2 -2 15 -77 38 -166 23 -90 102 -401 176
-693 193 -760 223 -876 228 -882 3 -2 295 77 649 177 353 100 713 202 798 226
85 24 355 100 600 169 245 69 504 142 575 162 72 20 132 37 134 39 2 2 -56
238 -129 526 -73 288 -172 678 -220 868 -75 301 -89 345 -106 347 -10 1 -158
-39 -329 -87z"/>
<path d="M7700 5729 c-190 -54 -417 -119 -505 -143 -88 -25 -567 -160 -1065
-301 -498 -141 -1015 -287 -1150 -325 -135 -38 -411 -116 -615 -174 -203 -57
-389 -109 -412 -116 -24 -6 -43 -14 -43 -19 0 -4 6 -30 14 -57 8 -27 73 -281
145 -564 72 -283 143 -564 159 -625 l28 -109 121 -61 c123 -62 149 -79 265
-172 l67 -54 338 95 c186 52 610 172 943 266 880 248 983 277 1775 501 396
111 723 205 727 208 4 4 -10 74 -31 156 -22 83 -89 348 -151 590 -208 821
-252 990 -258 996 -4 3 -162 -38 -352 -92z"/>
<path d="M8289 3516 c-2 -2 -116 -36 -254 -75 -1697 -478 -3020 -853 -3023
-856 -2 -2 10 -39 26 -82 39 -101 60 -184 76 -297 7 -50 17 -90 22 -90 9 2
373 104 759 213 116 32 516 145 890 251 1439 406 1668 471 1674 476 2 1 -25
99 -59 216 -34 117 -64 221 -66 231 -5 15 -34 24 -45 13z"/>
<path d="M3705 3049 c-237 -34 -471 -170 -623 -362 -160 -202 -237 -428 -236
-692 1 -182 30 -311 108 -470 65 -132 126 -215 233 -315 102 -96 223 -167 365
-216 l113 -38 175 0 c163 0 181 2 265 28 345 106 600 370 700 726 33 117 45
330 26 460 -32 220 -141 437 -295 593 -221 223 -529 329 -831 286z m208 -619
c182 -29 325 -178 357 -371 41 -242 -119 -477 -354 -520 -255 -46 -495 170
-496 446 0 124 51 245 140 329 66 63 121 93 204 111 77 17 79 17 149 5z"/>
</g>
</svg>
